<?xml version="1.0" standalone="no"?>
<!DOCTYPE svg PUBLIC "-//W3C//DTD SVG 20010904//EN"
 "http://www.w3.org/TR/2001/REC-SVG-20010904/DTD/svg10.dtd">
<svg version="1.0" xmlns="http://www.w3.org/2000/svg"
 width="1142.000000pt" height="1142.000000pt" viewBox="0 0 1142.000000 1142.000000"
 preserveAspectRatio="xMidYMid meet">
<metadata>
Created by potrace 1.11, written by Peter Selinger 2001-2013
</metadata>
<g transform="translate(0.000000,1142.000000) scale(0.100000,-0.100000)"
fill="#000000" stroke="none">
<path d="M5584 11400 c-47 -16 -92 -38 -104 -50 -3 -3 -21 -13 -40 -24 -65
-35 -125 -69 -135 -76 -5 -4 -26 -17 -45 -28 -110 -62 -530 -304 -679 -391
-96 -55 -175 -101 -177 -101 -1 0 -38 -21 -81 -46 -43 -26 -94 -56 -113 -67
-19 -11 -48 -28 -65 -38 -16 -10 -41 -24 -55 -32 -30 -16 -246 -140 -465 -267
-88 -51 -218 -127 -290 -168 -166 -95 -171 -98 -290 -167 -124 -72 -464 -268
-525 -303 -67 -38 -333 -191 -350 -202 -8 -5 -53 -31 -100 -58 -116 -66 -127
-73 -350 -202 -107 -62 -251 -145 -320 -184 -69 -38 -126 -74 -128 -78 -2 -4
-8 -8 -12 -8 -9 0 -297 -164 -365 -208 -61 -40 -112 -98 -147 -171 l-33 -66
-3 -2742 -2 -2742 21 -58 c49 -130 88 -167 344 -313 17 -9 89 -51 160 -92 72
-42 146 -85 165 -95 19 -11 94 -54 165 -95 72 -42 147 -85 167 -97 21 -12 55
-30 75 -42 49 -28 148 -86 195 -116 21 -13 40 -23 42 -23 2 0 96 -53 208 -118
111 -65 223 -130 248 -144 25 -14 96 -55 159 -92 62 -36 118 -66 122 -66 5 0
9 -4 9 -10 0 -5 5 -10 10 -10 6 0 68 -33 138 -74 218 -127 565 -328 602 -349
58 -32 120 -68 205 -117 143 -84 742 -430 835 -483 74 -41 363 -208 395 -228
17 -10 57 -33 90 -52 104 -59 128 -73 220 -127 296 -172 311 -178 425 -178 96
0 147 19 310 113 74 43 148 85 164 95 45 25 139 79 156 90 8 6 42 25 75 43 33
19 179 103 325 187 146 85 276 160 290 167 14 8 39 23 55 33 17 11 37 23 45
27 18 8 221 125 338 194 45 27 113 65 150 85 37 20 74 43 83 50 8 8 19 14 22
14 7 0 149 82 219 126 21 13 40 24 42 24 4 0 189 105 246 140 8 5 44 26 80 46
36 20 119 68 185 107 66 38 149 86 185 107 36 21 108 63 160 93 394 229 654
377 661 377 5 0 9 5 9 10 0 6 4 10 10 10 5 0 44 20 86 45 41 25 78 45 80 45 2
0 21 11 42 24 49 31 203 121 222 129 8 4 29 15 45 26 17 10 48 28 70 41 22 12
96 55 165 95 69 40 168 98 221 128 118 69 178 127 221 215 l33 67 3 2724 c2
3008 7 2787 -60 2898 -35 57 -85 104 -152 142 -24 14 -84 49 -133 77 -82 48
-440 255 -508 294 -16 9 -118 68 -225 130 -107 62 -211 121 -230 132 -19 11
-64 37 -100 58 -36 21 -81 47 -100 58 -19 11 -150 86 -290 167 -140 81 -275
159 -300 173 -25 14 -74 42 -109 64 -34 21 -64 38 -66 38 -2 0 -48 27 -103 59
-55 32 -124 72 -154 89 -29 16 -125 71 -213 122 -88 51 -178 103 -200 115 -22
13 -66 38 -97 57 -31 18 -127 74 -213 123 -86 50 -170 98 -188 109 -54 31
-544 314 -692 399 -77 44 -173 100 -213 124 -40 24 -75 43 -78 43 -3 0 -30 16
-60 35 -30 19 -56 35 -58 35 -2 0 -66 36 -142 81 -77 45 -161 89 -189 98 -67
24 -185 24 -251 1z"/>
</g>
</svg>
